<?xml version="1.0" standalone="no"?>
<!DOCTYPE svg PUBLIC "-//W3C//DTD SVG 1.1//EN" "http://www.w3.org/Graphics/SVG/1.1/DTD/svg11.dtd">
<svg xmlns="http://www.w3.org/2000/svg">
<metadata>Generated by Fontastic.me</metadata>
<defs>
<font id="untitled-font-1" horiz-adv-x="512">
<font-face font-family="untitled-font-1" units-per-em="512" ascent="480" descent="-32"/>
<missing-glyph horiz-adv-x="512" />

<glyph unicode="&#97;" d="M169 356l187-187-13-13-187 187z m174 0l13-13-187-187-13 13z"/>
<glyph unicode="&#98;" d="M124 265l264 0 0-18-264 0z"/>
<glyph unicode="&#99;" d="M55 276c15-18 90-113 103-113 21 0 228 282 257 324 24 35 109-11 73-57-38-49-301-400-330-400-28 0-140 151-155 170-17 23 44 87 52 76"/>
<glyph unicode="&#100;" d="M124 265l264 0 0-18-264 0z m123 123l18 0 0-264-18 0z"/>
<glyph unicode="&#101;" d="M309 26l-103 180 160 280 108 0-160-280 103-180z m-169 139l80 132-60 105-102 0 60-105-80-132z"/>
<glyph unicode="&#102;" d="M486 346c0 38-30 69-68 69l-324 0c-38 0-68-31-68-69l0-185c0-38 30-69 68-69l324 0c38 0 68 31 68 69z m-276-171l0 174 132-87z"/>
<glyph unicode="&#103;" d="M195 397c0-11 0-63 0-63l-47 0 0-78 47 0 0-230 95 0 0 230 65 0c0 0 6 37 8 78-8 0-72 0-72 0 0 0 0 45 0 53 0 8 10 19 21 19 10 0 31 0 52 0 0 10 0 47 0 80-27 0-58 0-71 0-100 0-98-77-98-89z"/>
<glyph unicode="&#104;" d="M290 304c35 17 59 55 59 99 0 60-46 109-102 109-57 0-103-49-103-109 0-45 25-83 61-100-73-39-115-173-115-235 0-37 78-68 158-68 77 0 156 30 156 66 0 62-34 200-114 238"/>
<glyph unicode="&#105;" d="M205 222l0 85 75 0c10 0 18 1 24 2 5 1 10 2 13 5 6 4 11 11 16 21 4 11 7 21 7 31 0 11-2 21-7 31-4 10-10 17-18 21-4 2-8 3-14 4-5 2-13 2-22 2l-74 0 0 88 84 0c13 0 25-1 35-2 10-1 19-3 28-6 8-3 16-7 23-12 7-4 13-10 20-17 24-24 35-55 35-91 0-36-9-64-29-86-6-7-12-12-17-15-5-4-13-7-23-11 27-9 48-25 64-46 15-22 22-49 22-83 0-18-2-35-7-51-5-17-12-31-21-44-9-14-21-24-35-33-14-8-31-13-50-14-7 0-15 0-24-1-9 0-19 0-31 0l-74 0 0 84 81 0c9 0 17 1 24 3 7 1 12 4 17 9 6 6 12 14 16 25 4 11 6 22 6 34 0 15-3 28-9 40-5 12-13 20-23 23-5 2-10 3-14 4-5 0-11 0-19 0z m-143 290l104 0 0-410-104 0z m52-512l52 77-104 0z"/>
<glyph unicode="&#106;" d="M395 480l28 0 0-90 89 0 0-30-89 0 0-92-28 0 0 92-89 0 0 30 89 0z m-110-1l-17-10c-12-7-23-11-35-11l-18 0 16-18c25-30 31-68 14-102-3-7-17-23-30-36-33-32-33-41 5-73 33-29 47-47 52-69 10-45-22-96-75-117-26-10-95-15-122-8-57 15-87 60-70 106 5 15 30 41 49 51 17 9 61 20 83 20l15 0-9 17c-6 12-7 20-5 33 2 15 1 16-6 14-13-5-50 5-67 18-21 15-37 49-37 74 1 41 23 75 63 95l27 14 84 1z m-154-21c-1 0-3 0-4 0-17-1-34-12-42-32-14-35 5-102 35-123 37-25 84 3 84 50 0 21-14 62-26 79-13 17-31 26-47 26z m18-263c-26-1-59-10-74-20-15-12-23-29-23-50 0-29 21-54 57-65 22-7 79-3 94 6 19 12 29 27 31 48 3 22-7 38-37 64-19 16-24 17-43 17-1 0-3 1-5 0z"/>
<glyph unicode="&#107;" d="M0 374l0-254 151 112z m512-254l0 254-151-142z m0 305l-512 0 256-229z m-256-280l-71 63-185-139 512 0-185 139z"/>
<glyph unicode="&#108;" d="M218 366c-1 33-7 138-7 146 18 0 38-2 44-14 12-25 13-89 0-113-7-14-22-15-37-19z m86-366c-62 0-132 50-189 140-56 90-70 194-56 283 15 90 119 89 119 89l8-150c0 0-30-13-35-31-4-16-7-30 27-108 21-47 36-77 50-85 37-21 74 0 74 0l100-107c0 0-44-31-98-31z m117 51c-16 17-94 102-98 107 15 13 40 28 68 15 21-10 50-36 64-59 14-24-22-55-34-63z"/>
<glyph unicode="&#109;" d="M240 200c4-5 10-9 16-9 6 0 12 4 16 9l63 98c4 6 4 13 1 19-4 6-10 10-17 10l-44 0 0 86c0 11-9 19-19 19-10 0-19-8-19-19l0-86-44 0c-7 0-13-4-17-10-3-6-3-13 1-19z m156 17c-11 0-19-9-19-20l0-2c0-31-1-35-6-37-14-6-52-6-115-6-63 0-101 0-115 6-5 2-6 6-6 37l0 2c0 11-9 20-19 20-11 0-20-9-20-20l0-2c0-34 0-60 29-73 22-10 56-10 131-10 75 0 109 0 131 10 29 13 29 39 29 73l0 2c0 11-9 20-20 20z"/>
<glyph unicode="&#111;" d="M55 37l402 0 0 292-402 0z m110 347l0 82c0 3-1 5-3 7-2 2-4 2-7 2l-18 0c-3 0-5 0-6-2-2-2-3-4-3-7l0-82c0-3 1-5 3-7 1-1 3-2 6-2l18 0c3 0 5 1 7 2 2 2 3 4 3 7z m219 0l0 82c0 3-1 5-3 7-1 2-3 2-6 2l-18 0c-3 0-5 0-7-2-2-2-3-4-3-7l0-82c0-3 1-5 3-7 2-1 4-2 7-2l18 0c3 0 5 1 6 2 2 2 3 4 3 7z m110 18l0-365c0-10-4-19-11-26-7-7-16-11-26-11l-402 0c-10 0-19 4-26 11-7 7-11 16-11 26l0 365c0 10 4 19 11 26 7 7 16 11 26 11l36 0 0 27c0 13 5 24 14 33 9 9 20 13 32 13l18 0c13 0 24-4 33-13 9-9 13-20 13-33l0-27 110 0 0 27c0 13 4 24 13 33 9 9 20 13 33 13l18 0c12 0 23-4 32-13 9-9 14-20 14-33l0-27 36 0c10 0 19-4 26-11 7-7 11-16 11-26z"/>
<glyph unicode="&#110;" d="M347 274c0 36-12 66-37 91-25 25-55 37-91 37-35 0-65-12-90-37-25-25-38-55-38-91 0-35 13-65 38-90 25-25 55-38 90-38 36 0 66 13 91 38 25 25 37 55 37 90z m147-237c0-10-4-19-11-26-7-7-16-11-26-11-10 0-19 4-26 11l-98 98c-34-24-72-36-114-36-27 0-53 5-78 16-25 11-46 25-64 43-18 18-32 39-43 64-10 25-16 51-16 78 0 28 6 54 16 78 11 25 25 47 43 65 18 18 39 32 64 43 25 10 51 15 78 15 28 0 54-5 79-15 24-11 46-25 64-43 18-18 32-40 43-65 10-24 16-50 16-78 0-42-12-80-36-114l98-98c7-7 11-15 11-25z"/>
<glyph unicode="&#112;" d="M160 256c0 32 0 96 0 96 0 0-80 0-96 0-16 0-32-16-32-32 0-16 0-144 0-160 0-16 16-32 32-32 16 0 32 0 32 0l0-96 97 96c0 0 81 0 96 0 15 0 31 16 31 32 0 16 0 32 0 32 0 0-64 0-96 0-32 0-64 32-64 64z m288 192c-16 0-208 0-224 0-16 0-32-16-32-32 0-16 0-144 0-160 0-16 16-32 32-32 16 0 95 0 95 0l97-96 0 96c0 0 16 0 32 0 16 0 32 16 32 32 0 16 0 144 0 160 0 16-16 32-32 32z"/>
<glyph unicode="&#113;" d="M352 352l-96-96-96 96-64-64 160-160 160 160z"/>
<glyph unicode="&#114;" d="M208 416l-64-64 96-96-96-96 64-64 160 160z"/>
<glyph unicode="&#115;" d="M256 512c-88 0-160-72-160-160 0-89 80-208 160-352 80 144 160 263 160 352 0 88-71 160-160 160z m0-224c-35 0-64 28-64 64 0 35 29 64 64 64 36 0 64-29 64-64 0-36-28-64-64-64z"/>
<glyph unicode="&#116;" d="M416 288c-16 0-32 0-32 0 0 0 0 32 0 96 0 64-64 128-128 128-64 0-128-64-128-128 0-64 0-96 0-96 0 0-16 0-32 0-16 0-32-16-32-32 0-16 0-208 0-224 0-16 16-32 32-32 16 0 304 0 320 0 16 0 32 16 32 32 0 16 0 208 0 224 0 16-16 32-32 32z m-96-64l-192 0 0-32 192 0 0-32-192 0 0-32 192 0 0-32-192 0 0-32 192 0 0-32-224 0 0 224 224 0z m0 64l-128 0c0 0 0 64 0 96 0 32 32 64 64 64 32 0 64-32 64-64 0-32 0-96 0-96z"/>
<glyph unicode="&#117;" d="M212 256l142-241-45-15-151 256 151 256 45-15z"/>
<glyph unicode="&#118;" d="M300 256l-142-241 45-15 151 256-151 256-45-15z"/>
<glyph unicode="&#119;" d="M105 32l32-32 253 253-253 254-34-34 222-222z"/>
<glyph unicode="&#120;" d="M41 381l-30-30 241-241 242 241-32 32-212-211z"/>
<glyph unicode="&#121;" d="M295 256l-148 0-88-91 0 91c-30 0-59 30-59 61l0 122c0 30 29 61 59 61l236 0c29 0 58-31 58-61l0-122c0-31-29-61-58-61z m134-152l0-92-88 92-148 0c-29 0-59 30-59 61l0 17 42 44 135 0c46 0 88 44 88 91l0 30 30 0c29 0 59-30 59-61l0-121c0-31-30-61-59-61z"/>
<glyph unicode="&#122;" d="M276 236c-48-48-126-48-174 0-48 48-48 126 0 174 48 48 126 48 174 0 48-48 48-126 0-174z m232-160l-155 155c41 72 31 164-30 226-74 73-193 73-267 0-74-74-74-194 0-267 61-62 154-71 226-31l154-154c7-7 17-7 24 0l48 48c6 6 6 17 0 23z"/>
<glyph unicode="&#65;" d="M256 512c-100 0-179-79-179-179 0-133 179-333 179-333 0 0 179 200 179 333 0 100-79 179-179 179z m0-243c-36 0-64 28-64 64 0 36 28 64 64 64 36 0 64-28 64-64 0-36-28-64-64-64z"/>
<glyph unicode="&#66;" d="M512 0l0 296-91 0 0 63c0 84-74 153-165 153-91 0-165-69-165-153l0-63-91 0 0-296m348 296l-184 0 0 63c0 45 42 84 92 84 50 0 92-39 92-84l0-63m-64-130l46-94-141 0 46 94c-10 8-18 20-18 34 0 23 19 43 43 43 23 0 42-20 42-43 0-14-7-26-18-34"/>
<glyph unicode="&#67;" d="M457 302l0-55c0-8-3-14-8-20-5-5-12-8-19-8l-119 0 0-118c0-8-3-15-8-20-5-5-12-8-20-8l-54 0c-8 0-15 3-20 8-5 5-8 12-8 20l0 118-119 0c-7 0-14 3-19 8-5 6-8 12-8 20l0 55c0 7 3 14 8 19 5 5 12 8 19 8l119 0 0 119c0 8 3 14 8 19 5 6 12 8 20 8l54 0c8 0 15-2 20-8 5-5 8-11 8-19l0-119 119 0c7 0 14-3 19-8 5-5 8-12 8-19z"/>
<glyph unicode="&#68;" d="M384 416l-192-192-64 64-64-64 128-128 256 256z"/>
<glyph unicode="&#69;" d="M256 512c141 0 256-115 256-256 0-141-115-256-256-256-141 0-256 115-256 256 0 141 115 256 256 256z m-57-93l16-193 81 0 17 193z m98-268c0 14-4 25-12 35-8 10-18 14-29 14-11 0-21-4-29-14-8-10-12-21-12-35 0-14 4-26 12-36 9-9 18-14 30-14 11 0 20 5 28 14 8 10 12 22 12 36z"/>
<glyph unicode="&#70;" d="M397 499c-17 17-44 17-61 0l-30-30 160-160 30 30c17 17 17 44 0 60l-99 100m-184-404l-40 40 220 219-40 40-220-219-40 40 219 220-19 19-260-259 160-160 259 260-19 19z m-213 67l161-162-161 0 0 162"/>
<glyph unicode="&#71;" d="M416 352l-64 64-96-96-96 96-64-64 96-96-96-96 64-64 96 96 96-96 64 64-96 96z"/>
<glyph unicode="&#72;" d="M256 504c-137 0-248-111-248-248 0-137 111-248 248-248 137 0 248 111 248 248 0 137-111 248-248 248z m0 0"/>
<glyph unicode="&#73;" d="M256 504c-137 0-248-111-248-248 0-137 111-248 248-248 137 0 248 111 248 248 0 137-111 248-248 248z m0-479c-128 0-231 103-231 231 0 128 103 231 231 231 128 0 231-103 231-231 0-127-103-231-231-231z m0 0"/>
</font>
</defs>
</svg>
